<svg width="20" height="20" viewBox="0 0 20 20" xmlns="http://www.w3.org/2000/svg">
<path d="M3.31074 20C1.14163 20 0 18.8767 0 16.7253V5.28331C0 3.13198 1.14163 1.98967 3.31074 1.98967H13.5854L11.5305 4.04582H3.34879C2.49257 4.04582 2.05493 4.46466 2.05493 5.3785V16.6111C2.05493 17.5249 2.49257 17.9437 3.34879 17.9437H14.9363C15.5072 17.9437 15.9448 17.5249 15.9448 16.6111V8.53889L17.9807 6.50177V16.7253C17.9807 18.8767 16.8391 20 14.9555 20H3.31074ZM7.02099 13.5459C6.64056 13.6983 6.24098 13.3175 6.41212 12.9367L7.32542 11.052L16.3064 2.04679L18.0188 3.70312L8.9999 12.7273L7.02099 13.5459ZM18.856 2.8464L17.1625 1.17101L18.0188 0.333332C18.4374 -0.104548 19.0653 -0.104547 19.4649 0.295252L19.7121 0.54276C20.0927 0.923519 20.1117 1.49467 19.6742 1.93256L18.856 2.8464Z" fill="#006400"/>
</svg>
