<svg width="28" height="28" viewBox="0 0 28 28" fill="none" xmlns="http://www.w3.org/2000/svg">
<g clip-path="url(#clip0_181_32996)">
<path d="M13.9531 25.918C20.4922 25.918 25.9062 20.5039 25.9062 13.9648C25.9062 7.4375 20.4805 2.01172 13.9414 2.01172C7.41406 2.01172 2 7.4375 2 13.9648C2 20.5039 7.42578 25.918 13.9531 25.918Z" fill="black" fill-opacity="0.85"/>
<path d="M10.2383 19.7305C8.90234 19.7305 8.19922 19.0391 8.19922 17.7148V10.6719C8.19922 9.34764 8.90234 8.64451 10.2383 8.64451H16.5664L15.3008 9.91014H10.2617C9.73438 9.91014 9.46484 10.1679 9.46484 10.7304V17.6445C9.46484 18.207 9.73438 18.4648 10.2617 18.4648H17.3984C17.75 18.4648 18.0195 18.207 18.0195 17.6445V12.6758L19.2734 11.4219V17.7148C19.2734 19.0391 18.5703 19.7305 17.4102 19.7305H10.2383ZM12.5234 15.7578C12.2891 15.8516 12.043 15.6172 12.1484 15.3828L12.7109 14.2227L18.2422 8.67967L19.2969 9.6992L13.7422 15.2539L12.5234 15.7578ZM19.8125 9.17186L18.7695 8.1406L19.2969 7.62498C19.5547 7.35545 19.9414 7.35545 20.1875 7.60154L20.3398 7.75389C20.5742 7.98826 20.5859 8.33982 20.3164 8.60936L19.8125 9.17186Z" fill="white"/>
</g>
<defs>
<clipPath id="clip0_181_32996">
<rect width="23.9062" height="23.918" fill="white" transform="translate(2 2)"/>
</clipPath>
</defs>
</svg>
