<svg width="24" height="24" viewBox="0 0 24 24" fill="none" xmlns="http://www.w3.org/2000/svg">
<circle cx="12" cy="12" r="12" fill="black"/>
<g clip-path="url(#clip0_183_33003)">
<path d="M10.2694 16.5724C10.0246 16.5724 9.86761 16.428 9.85505 16.1894L9.66672 9.27748C9.66044 9.0452 9.81739 8.89453 10.0685 8.89453C10.3008 8.89453 10.464 9.03892 10.4703 9.27121L10.6712 16.1894C10.6775 16.4217 10.5142 16.5724 10.2694 16.5724ZM12.1842 16.5724C11.9393 16.5724 11.7698 16.4217 11.7698 16.1894V9.27748C11.7698 9.0452 11.9393 8.89453 12.1842 8.89453C12.429 8.89453 12.6048 9.0452 12.6048 9.27748V16.1894C12.6048 16.4217 12.429 16.5724 12.1842 16.5724ZM14.1052 16.5724C13.8604 16.5724 13.6971 16.4217 13.7034 16.1894L13.898 9.27748C13.9043 9.03892 14.0675 8.89453 14.2998 8.89453C14.5509 8.89453 14.7079 9.0452 14.7016 9.27748L14.5133 16.1894C14.5007 16.428 14.3438 16.5724 14.1052 16.5724ZM9.42816 7.369H10.4263V6.02553C10.4263 5.66769 10.6775 5.43541 11.0541 5.43541H13.3016C13.6783 5.43541 13.9294 5.66769 13.9294 6.02553V7.369H14.9276V5.96275C14.9276 5.05246 14.3375 4.5 13.3707 4.5H10.9851C10.0183 4.5 9.42816 5.05246 9.42816 5.96275V7.369ZM6.57799 7.87123H17.7966C18.054 7.87123 18.2612 7.65151 18.2612 7.39411C18.2612 7.13672 18.054 6.92327 17.7966 6.92327H6.57799C6.32687 6.92327 6.10715 7.13672 6.10715 7.39411C6.10715 7.65778 6.32687 7.87123 6.57799 7.87123ZM9.30888 18.4809H15.0657C15.9634 18.4809 16.5661 17.897 16.6101 16.9993L17.0495 7.7394H7.31878L7.76451 17.0056C7.80846 17.9033 8.39858 18.4809 9.30888 18.4809Z" fill="white"/>
</g>
<defs>
<clipPath id="clip0_183_33003">
<rect width="12.154" height="15.0984" fill="white" transform="translate(6.10715 4.5)"/>
</clipPath>
</defs>
</svg>
